<?xml version="1.0" encoding="UTF-8"?>
<svg id="circle_5" data-name="circle 5" xmlns="http://www.w3.org/2000/svg" viewBox="0 0 24.21 24.21">
  <circle cx="12.1" cy="12.1" r="12" fill="#fe5528" stroke="#fe5528" stroke-miterlimit="10" stroke-width=".21"/>
  <g>
    <line x1="7.03" y1="7.2" x2="10.05" y2="8.58" fill="none"/>
    <path d="M6.88,7.47c.88,.4,1.75,.8,2.63,1.2l.38,.17c.15,.07,.33,.04,.42-.11,.08-.13,.04-.35-.11-.42-.88-.4-1.75-.8-2.63-1.2l-.38-.17c-.15-.07-.33-.04-.42,.11-.08,.13-.04,.35,.11,.42h0Z" fill="#d00100"/>
  </g>
  <g>
    <line x1="14.16" y1="8.53" x2="16.84" y2="6.6" fill="none"/>
    <path d="M14.31,8.8c.78-.56,1.56-1.13,2.35-1.69l.34-.24c.14-.1,.2-.27,.11-.42-.08-.13-.29-.21-.42-.11-.78,.56-1.56,1.13-2.35,1.69l-.34,.24c-.14,.1-.2,.27-.11,.42,.08,.13,.29,.21,.42,.11h0Z" fill="#d00100"/>
  </g>
  <ellipse cx="9.28" cy="11.4" rx="1.27" ry="1.37" fill="#d00100"/>
  <ellipse cx="14.86" cy="11.4" rx="1.27" ry="1.37" fill="#d00100"/>
  <path d="M9.52,17.69c.49-.54,1.15-.99,1.83-1.25,.58-.23,1.21-.33,1.83-.19,.89,.2,1.58,.81,2.14,1.51,.25,.31,.69-.13,.44-.44-.6-.75-1.38-1.41-2.34-1.65-.7-.17-1.44-.11-2.11,.13-.82,.29-1.63,.81-2.22,1.46-.27,.29,.17,.73,.44,.44h-.01Z" fill="#d00100"/>
</svg>