<svg width="28" height="30" viewBox="0 0 28 30" fill="none" xmlns="http://www.w3.org/2000/svg">
<path d="M27.125 21.0938V1.40625C27.125 0.626953 26.498 0 25.7188 0H6.5C3.39453 0 0.875 2.51953 0.875 5.625V24.375C0.875 27.4805 3.39453 30 6.5 30H25.7188C26.498 30 27.125 29.373 27.125 28.5938V27.6563C27.125 27.2168 26.9199 26.8184 26.6035 26.5605C26.3574 25.6582 26.3574 23.0859 26.6035 22.1836C26.9199 21.9316 27.125 21.5332 27.125 21.0938ZM8.375 7.85156C8.375 7.6582 8.5332 7.5 8.72656 7.5H21.1484C21.3418 7.5 21.5 7.6582 21.5 7.85156V9.02344C21.5 9.2168 21.3418 9.375 21.1484 9.375H8.72656C8.5332 9.375 8.375 9.2168 8.375 9.02344V7.85156ZM8.375 11.6016C8.375 11.4082 8.5332 11.25 8.72656 11.25H21.1484C21.3418 11.25 21.5 11.4082 21.5 11.6016V12.7734C21.5 12.9668 21.3418 13.125 21.1484 13.125H8.72656C8.5332 13.125 8.375 12.9668 8.375 12.7734V11.6016ZM23.2227 26.25H6.5C5.46289 26.25 4.625 25.4121 4.625 24.375C4.625 23.3438 5.46875 22.5 6.5 22.5H23.2227C23.1113 23.502 23.1113 25.248 23.2227 26.25Z" fill="#7EBAF5"/>
</svg>
