<?xml version="1.0" encoding="UTF-8"?>
<svg id="circle_1" data-name="circle 1" xmlns="http://www.w3.org/2000/svg" viewBox="0 0 24.21 24.21">
  <circle cx="12.1" cy="12.1" r="12" fill="#83d42f" stroke="#83d42f" stroke-miterlimit="10" stroke-width=".21"/>
  <path d="M6.22,9.03s.05-.08,.08-.13c.01-.02,.03-.05,.05-.06,.06-.08-.05,.06,0,0s.09-.11,.15-.16c.06-.06,.13-.11,.18-.16-.05,.05-.03,.02,0,0,.02-.01,.03-.02,.06-.03,.05-.02,.08-.06,.13-.08s.08-.05,.13-.07c.01,0,.09-.05,.05-.02s.03-.01,.06-.02c.11-.03,.22-.07,.33-.09h.06c.06,0-.06,0,0,0h.34c.21,0,.29,.02,.49,.07,.18,.05,.39-.06,.43-.25,.05-.18-.06-.39-.25-.43-.64-.15-1.29-.13-1.89,.17-.37,.17-.66,.46-.9,.78-.05,.06-.08,.11-.11,.18-.09,.17-.05,.39,.13,.48,.16,.09,.4,.05,.48-.13h0l.02-.05Z" fill="#4a7a13"/>
  <path d="M16.38,8.2c.08-.02,.15-.03,.23-.05-.14,.03,0,0,.03,0h.38c.1,0-.05-.01,.01,0,.13,.02,.25,.05,.37,.09,.03,.01,.07,.02,.09,.03-.09-.03,.02,0,.03,.02,.07,.03,.14,.07,.19,.11,.03,.02,.07,.05,.1,.07,.01,.01,.03,.02,.05,.03t0,0c.07,.06,.14,.11,.19,.18,.03,.03,.07,.07,.09,.1,0,0,.08,.1,.06,.07,.07,.08,.13,.17,.18,.26,.1,.16,.32,.23,.48,.13s.23-.32,.13-.48c-.34-.55-.82-1.01-1.44-1.22-.39-.14-.8-.16-1.2-.09-.07,0-.14,.02-.21,.05-.18,.06-.3,.24-.25,.43,.05,.18,.25,.31,.43,.25h.05Z" fill="#4a7a13"/>
  <ellipse cx="7.48" cy="11.3" rx="1.3" ry="1.5" fill="#4a7a13" stroke="#4a7a13" stroke-miterlimit="10" stroke-width=".21"/>
  <ellipse cx="17.11" cy="11.3" rx="1.3" ry="1.5" fill="#4a7a13" stroke="#4a7a13" stroke-miterlimit="10" stroke-width=".21"/>
  <path d="M9.69,16.8c-.08-.1-.1-.24-.05-.35,.06-.1,.16-.17,.27-.18l4.82-.18s.22-.01,.33,.14c.1,.14,.06,.33,.02,.43-.16,.61-1.39,1.34-1.59,1.45-.38,.14-1.28,.42-2.15,.06-.13-.06-.43-.19-.94-.61-.34-.27-.58-.56-.74-.77h.01Z" fill="#4a7a13" stroke="#4a7a13" stroke-miterlimit="10" stroke-width=".21"/>
</svg>