<?xml version="1.0" encoding="UTF-8"?>
<svg id="circle_4" data-name="circle 4" xmlns="http://www.w3.org/2000/svg" viewBox="0 0 24.21 24.21">
  <circle cx="12.1" cy="12.1" r="12" fill="#61d6f3" stroke="#61d6f3" stroke-miterlimit="10" stroke-width=".21"/>
  <path d="M5.3,8.09s2.5,.7,3.07-1.84" fill="#0275aa"/>
  <path d="M15.85,6.13s.75,2.48,3.2,1.61" fill="#0275aa"/>
  <ellipse cx="7.78" cy="11.42" rx="1.46" ry="1.57" fill="#0275aa"/>
  <ellipse cx="16.38" cy="11.42" rx="1.46" ry="1.57" fill="#0275aa"/>
  <path d="M7.83,13.46c-.58,.59-.82,1.26-.57,1.66,.09,.15,.33,.41,.63,.37,.24-.03,.43-.25,.49-.55,0-.18,0-.49-.15-.85-.11-.3-.29-.5-.4-.63Z" fill="#0275aa"/>
  <path d="M10.16,17.37c.11-.17,.85-1.25,2.21-1.42,.21-.02,1.33-.03,2.29,.71,.87,.67,.95,1.63,.57,2-.29,.27-.87,.27-1.43,.02-.46-.09-1.13-.17-1.91-.06-1.11,.16-1.73,.58-2,.32-.15-.15-.22-.51,.27-1.58h0Z" fill="#0275aa"/>
</svg>