<?xml version="1.0" encoding="UTF-8"?>
<svg id="circle_3" data-name="circle 3" xmlns="http://www.w3.org/2000/svg" viewBox="0 0 24.21 24.21">
  <circle cx="12.1" cy="12.1" r="12" fill="#fffd1a" stroke="#fffd1a" stroke-miterlimit="10" stroke-width=".21"/>
  <g>
    <path d="M4.84,8.88s1.03-1.62,2.56-1.71" fill="#d2b900"/>
    <path d="M5.15,9.06s.03-.05,.05-.07c.02-.02,.03-.05,.06-.08,.01-.01,.02-.03,.03-.05,0,0,.01-.01,.02-.02,.02-.02,.01-.02-.02,.03,.02,0,.08-.1,.09-.13,.03-.05,.08-.09,.11-.14,.09-.1,.18-.21,.29-.3,.06-.06,.11-.1,.17-.15,.03-.02,.06-.05,.09-.08,.01-.01,.03-.02,.05-.03t0,0c.14-.1,.27-.19,.42-.27,.08-.05,.15-.08,.23-.11-.07,.03,.06-.02,.07-.02,.05-.01,.08-.03,.13-.05,.08-.02,.17-.05,.26-.07,.01,0,.15-.02,.08-.01,.05,0,.09,0,.14-.01,.19-.01,.35-.15,.35-.35,0-.18-.16-.37-.35-.35-1.13,.08-2.06,.81-2.72,1.68-.06,.07-.1,.14-.15,.22-.1,.16-.03,.39,.13,.48,.17,.1,.38,.03,.48-.13h0Z" fill="#d2b900"/>
  </g>
  <g>
    <path d="M16.45,7.43s1.7,.37,2.4,1.75" fill="#d2b900"/>
    <path d="M16.36,7.77s.11,.02,.16,.05c.06,.02,.13,.03,.18,.06,.07,.02,.18,.05,.24,.09,0,0-.07-.03-.03-.01,.01,0,.02,.01,.05,.02,.02,0,.05,.02,.06,.02l.14,.07c.1,.05,.19,.1,.3,.16,.1,.07,.22,.14,.32,.21,.01,0,.02,.02,.03,.02,0,0-.05-.03-.01,0,.02,.02,.05,.03,.07,.06,.06,.05,.1,.09,.16,.14s.1,.1,.15,.15c.02,.02,.05,.06,.07,.08,0,.01,.08,.1,.05,.06,.1,.13,.18,.27,.26,.42,.09,.17,.33,.22,.48,.13,.17-.1,.22-.31,.13-.48-.48-.93-1.41-1.54-2.38-1.85-.08-.02-.15-.05-.23-.07-.18-.05-.39,.06-.43,.25-.05,.18,.06,.4,.25,.43h0Z" fill="#d2b900"/>
  </g>
  <ellipse cx="7.13" cy="11.49" rx="1.6" ry="1.55" fill="#d2b900" stroke="#d2b900" stroke-miterlimit="10" stroke-width=".21"/>
  <ellipse cx="16.86" cy="11.49" rx="1.6" ry="1.55" fill="#d2b900" stroke="#d2b900" stroke-miterlimit="10" stroke-width=".21"/>
  <path d="M9.58,17.57c1.44-.88,3.38-.88,4.82,0,.39,.24,.74-.38,.35-.62-1.65-1.01-3.87-1.01-5.53,0-.39,.24-.03,.85,.35,.62h0Z" fill="#d2b900"/>
</svg>